<?xml version="1.0" encoding="utf-8"?>
<!-- Generator: Adobe Illustrator 19.1.1, SVG Export Plug-In . SVG Version: 6.00 Build 0)  -->
<svg version="1.1" xmlns="http://www.w3.org/2000/svg" xmlns:xlink="http://www.w3.org/1999/xlink" x="0px" y="0px"
	 viewBox="-12 -32 135 135" style="enable-background:new -12 -32 135 135;" xml:space="preserve">
<style type="text/css">
	.st0{display:none;}
	.st1{display:inline;}
	.st2{fill:url(#SVGID_1_);}
	.st3{fill:#FFFFFF;}
	.st4{fill:url(#SVGID_2_);}
	.st5{fill:url(#SVGID_3_);}
	.st6{fill:url(#SVGID_4_);}
</style>
<g id="Capa_1" class="st0">
	<g id="Capa_1_3_">
		<g id="Capa_1_2_" class="st1">
			<g id="Capa_1_1_">
				<g>
					
						<linearGradient id="SVGID_1_" gradientUnits="userSpaceOnUse" x1="19.5" y1="-117.9134" x2="19.5" y2="16.0866" gradientTransform="matrix(1 0 0 1 0 4)">
						<stop  offset="0" style="stop-color:#1000A5"/>
						<stop  offset="0.2578" style="stop-color:#22069E"/>
						<stop  offset="0.728" style="stop-color:#3E1092"/>
						<stop  offset="1" style="stop-color:#49148E"/>
					</linearGradient>
					<circle class="st2" cx="19.5" cy="-59.7" r="67"/>
					<path class="st3" d="M47.4-66.2c0-1.2-0.7-2.3-1.6-2.5v-2.7c0-0.8-0.6-1.4-1.4-1.4S43-72.2,43-71.4v4.3h-6.4V-69H27
						c-1.1,0-2.1-0.9-2.1-2.1c0-0.6,0.2-1.1,0.6-1.5c0.4-0.4,0.9-0.6,1.5-0.6h9.7v-2.1H27c-1.1,0-2.1-0.9-2.1-2.1
						c0-0.6,0.2-1.1,0.6-1.5s0.9-0.6,1.5-0.6h9.7v-2.1H27c-1.1,0-2.1-0.9-2.1-2.1c0-0.6,0.2-1.1,0.6-1.5c0.4-0.4,0.9-0.6,1.5-0.6
						h9.7v-0.1c0-7.1-5.8-12.9-12.9-12.9h-8.7C8-98.8,2.2-93,2.2-85.9v0.1h9.7c0.6,0,1.1,0.2,1.5,0.6s0.6,0.9,0.6,1.5
						c0,1.1-0.9,2.1-2.1,2.1H2.2v2.1h9.7c0.6,0,1.1,0.2,1.5,0.6S14-78,14-77.4c0,1.1-0.9,2.1-2.1,2.1H2.2v2.1h9.7
						c0.6,0,1.1,0.2,1.5,0.6s0.6,0.9,0.6,1.5c0,1.1-0.9,2.1-2.1,2.1H2.2v1.9h-6.4v-4.3c0-0.8-0.6-1.4-1.4-1.4S-7-72.2-7-71.4v2.7
						c-0.9,0.3-1.6,1.3-1.6,2.5c0,1.3,0.8,2.4,1.8,2.6c1.4,11.3,10.5,20.2,21.9,21.2v0.9H18v12.3H6.4c-2.3,0-4.2,1.9-4.2,4.2
						s1.9,4.2,4.2,4.2h26.1c2.3,0,4.2-1.9,4.2-4.2s-1.9-4.2-4.2-4.2H20.8v-12.3h2.9v-0.9c11.4-1,20.5-9.9,21.9-21.2
						C46.7-63.8,47.4-64.9,47.4-66.2z M23.8-45.2v-1.6h-8.6v1.6C4.8-46.3-3.5-54.8-4.1-65.3h6.4v-1.6H12c0.6,0,1.1,0.2,1.5,0.6
						c0.1,0.1,0.2,0.2,0.2,0.3c0,0,0,0.1,0.1,0.1c0,0.1,0.1,0.1,0.1,0.2c0,0,0,0.1,0.1,0.1c0,0.1,0.1,0.2,0.1,0.3l0,0l0,0
						c0,0.1,0.1,0.3,0.1,0.5c0,1.1-0.9,2.1-2.1,2.1H2.4v0.1c0,7.1,5.8,12.9,12.9,12.9H24c7.1,0,12.9-5.8,12.9-12.9v-0.1H27
						c-1.1,0-2.1-0.9-2.1-2.1c0-0.2,0-0.3,0.1-0.5l0,0l0,0c0-0.1,0-0.2,0.1-0.3c0,0,0-0.1,0.1-0.1c0-0.1,0.1-0.1,0.1-0.2
						c0,0,0-0.1,0.1-0.1c0.1-0.1,0.1-0.2,0.2-0.3c0.4-0.4,0.9-0.6,1.5-0.6h9.7v1.6H43C42.4-54.7,34.2-46.2,23.8-45.2z"/>
				</g>
			</g>
			<g id="Capa_2">
			</g>
		</g>
		<g id="Capa_2_1_" class="st1">
			
				<linearGradient id="SVGID_2_" gradientUnits="userSpaceOnUse" x1="33" y1="164.566" x2="33" y2="32.566" gradientTransform="matrix(1 0 0 -1 0 74)">
				<stop  offset="0" style="stop-color:#540086"/>
				<stop  offset="0.1493" style="stop-color:#58058C"/>
				<stop  offset="0.3496" style="stop-color:#65149D"/>
				<stop  offset="0.5789" style="stop-color:#792DB9"/>
				<stop  offset="0.8277" style="stop-color:#954FE0"/>
				<stop  offset="1" style="stop-color:#AB6AFF"/>
			</linearGradient>
			<circle class="st4" cx="33" cy="-27" r="66"/>
			<g>
				<g>
					<path class="st3" d="M33.7-11.6l6.9-24.7l0,0c4.5-1.1,10.7-3.6,11.5,0c1,4.3,2.2,14.5,3.4,24.4"/>
					<path class="st3" d="M34.2-11.6l-6.9-24.6l0,0c-4.5-1.1-10.7-3.6-11.5,0c-1,4.3-2.2,14.5-3.4,24.4"/>
					<path class="st3" d="M15.9-36.5c1.1-3.9,11.4-4.8,14.1-7c1.3,1.1,2.2,1.4,3.7,1.4s2.4-0.3,3.7-1.4c2,1.7,12.7,2.9,14.5,6.9"/>
					<polygon class="st3" points="26.8,-41.7 26.5,-32.9 34.1,-11.8 41.1,-32.9 40.6,-41.9 37.5,-43.6 30.1,-43.6 					"/>
					<polygon class="st3" points="27.9,-42.3 33.8,-14.2 24.1,-29.6 25.4,-32.3 22.6,-34.5 26.4,-41.4 					"/>
					<polygon class="st3" points="27.9,-42.3 33.8,-14.2 25.1,-30.9 26.5,-32.9 23.7,-35.1 26.4,-41.4 					"/>
					<polygon class="st3" points="39.8,-42.4 33.8,-14.2 43.4,-29.6 42.2,-32.3 44.9,-34.5 42,-41.3 					"/>
					<path class="st3" d="M33.9-42.2c3.6,0,7-4.2,8.8-9.3c0.1,0.1,0.2,0.2,0.4,0.2c0.7,0.1,1.6-1.2,1.9-3s0-3.4-0.8-3.5
						c-0.1,0-0.1,0-0.2,0C44.4-64.1,41.7-70,33.9-70s-10.4,5.9-10.1,12.2c-0.1,0-0.2,0-0.2,0c-0.7,0.1-1.1,1.7-0.8,3.5
						s1.1,3.2,1.9,3c0.2,0,0.3-0.1,0.4-0.3C26.8-46.4,30.2-42.2,33.9-42.2z"/>
					<path class="st3" d="M44-57.9c0.4-6.3-2.3-12.2-10.1-12.2s-10.4,5.9-10.1,12.2c0.6,0.2,1.3,1.3,1.6,2.8
						c0.5,0.3,0.9,0.1,0.9-1.1c0-3.8,0.5-7.1,2.9-7.9c2.4-0.8,2.9,0.9,4.7,0.9s2.4-1.6,4.7-0.9c2.4,0.7,2.9,4.1,2.9,7.9
						c0,1.2,0.3,1.5,0.8,1.2C42.6-56.6,43.3-57.8,44-57.9z"/>
					<path class="st3" d="M40.9-65.9c-1,2-11.2,7.8-14.5,8.1C23-57.6,26.2-71.1,40.9-65.9z"/>
					<path class="st3" d="M36.1-65.9c0.4,2,4.8,7.8,6.3,8.1C43.8-57.6,42.4-71.1,36.1-65.9z"/>
				</g>
				<path class="st3" d="M-1.4-10.3c0-6.3-0.4-5.8-1-5.7c-0.6,0-1.1-0.4-1.1,5.8L-4.2-27c-0.1-8.2,0.5-9.6,1.4-10.7
					c0.9-1.2,2.3-2.2,3.6-2.6l13.1-4.6c0.5-0.2,1.1,0.1,1.3,0.6s-0.1,1.1-0.6,1.3L1.5-38.4c-1,0.3-2,1.1-2.7,2
					c-0.6,0.8-1,1.6-0.9,9.3L-1.4-10.3z"/>
				<path class="st3" d="M-1.9-7.4C1.9-7.4,5-6,5-9.8s-3.1-6.9-6.9-6.9s-6.9,3.1-6.9,6.9C-8.8-6-5.7-7.4-1.9-7.4z"/>
				<polygon class="st3" points="-4,6.5 69.8,6.5 79.3,-9.4 -13.4,-9.4 				"/>
				<path class="st3" d="M8.2-44.1l9.3-3.3c1.3-0.5,2.7,0.2,3.2,1.5l0,0c0.5,1.3-0.2,2.7-1.5,3.2l-9.3,3.3c-1.3,0.5-2.7-0.2-3.2-1.5
					l0,0C6.2-42.2,6.9-43.6,8.2-44.1z"/>
				<path class="st3" d="M12.2-12.4"/>
			</g>
		</g>
	</g>
	<g id="Capa_2_2_" class="st1">
		
			<linearGradient id="SVGID_3_" gradientUnits="userSpaceOnUse" x1="45.3" y1="131.5127" x2="45.3" y2="0.5127" gradientTransform="matrix(1 0 0 -1 0 72)">
			<stop  offset="0" style="stop-color:#3123A8"/>
			<stop  offset="0.2021" style="stop-color:#2D29AA"/>
			<stop  offset="0.4733" style="stop-color:#223AAF"/>
			<stop  offset="0.7822" style="stop-color:#1056B8"/>
			<stop  offset="1" style="stop-color:#006EC0"/>
		</linearGradient>
		<circle class="st5" cx="45.3" cy="3.6" r="65.5"/>
		<g>
			<g>
				<path class="st3" d="M45.9,32.8L55,8.1l0,0c6.1-1.5,14.6-4.9,15.7,0c1.3,5.9,2.4,10.8,4.1,24.3c0,0,4,12.7-28.4,12.7h0.1
					c-32,0-29.4-12.9-29.4-12.9c1.7-13.5,2.8-18.5,4.1-24.3c1.1-4.9,9.6-1.5,15.7,0l0,0L45.9,32.8"/>
				<path class="st3" d="M21.4,7.8C22.9,2.4,37,1.3,40.7-1.8c1.8,1.6,3,1.9,5,1.9s3.3-0.4,5.1-2c2.8,2.3,17.3,4,19.7,9.4"/>
				<polygon class="st3" points="36.3,0.8 35.8,12.7 46.1,35 55.7,12.7 55.1,0.4 50.9,-1.9 40.7,-1.8 				"/>
				<polygon class="st3" points="37.7,-0.1 45.7,38.2 32.6,17.2 34.3,13.5 30.5,10.5 35.6,1.1 				"/>
				<polygon class="st3" points="37.7,-0.1 45.7,38.2 33.8,15.5 35.8,12.7 32,9.7 35.6,1.1 				"/>
				<polygon class="st3" points="53.9,-0.2 45.7,38.2 58.9,17.2 57.2,13.5 60.9,10.5 56.9,1.2 				"/>
				<path class="st3" d="M45.9,0c5,0,9.6-5.7,12-12.7c0.1,0.1,0.3,0.2,0.5,0.3c1,0.2,2.1-1.7,2.5-4.2s-0.1-4.6-1.1-4.8
					c-0.1,0-0.1,0-0.2,0c0.5-8.6-3.1-16.5-13.7-16.5c-10.7,0-14.3,8-13.8,16.6c-0.1,0-0.2,0-0.3,0c-1,0.2-1.5,2.3-1.1,4.8
					s1.5,4.3,2.5,4.2c0.2,0,0.4-0.2,0.6-0.4C36.2-5.8,40.9,0,45.9,0z"/>
				<path class="st3" d="M59.6-21.3c0.5-8.7-3.1-16.6-13.7-16.6c-10.7,0-14.3,8-13.8,16.6c0.9,0.2,1.8,1.8,2.2,3.9
					c0.7,0.5,1.2,0.2,1.2-1.5c0-5.1,0.6-9.7,4-10.8c3.2-1,3.9,1.2,6.4,1.2s3.2-2.1,6.4-1.2c3.3,0.9,4,5.6,4,10.8
					c0,1.7,0.5,2,1.1,1.6C57.8-19.6,58.7-21.2,59.6-21.3z"/>
				<path class="st3" d="M55.5-32.3c-1.4,2.8-15.2,10.6-19.8,11C31-21,35.4-39.5,55.5-32.3z"/>
				<path class="st3" d="M48.9-32.3c0.6,2.8,6.6,10.6,8.6,11C59.4-21,57.5-39.5,48.9-32.3z"/>
			</g>
			<path class="st3" d="M16.3,40.7"/>
		</g>
	</g>
</g>
<g id="Capa_2_3_">
	<linearGradient id="SVGID_4_" gradientUnits="userSpaceOnUse" x1="56.8454" y1="-27.2811" x2="56.8454" y2="105.7193">
		<stop  offset="0" style="stop-color:#3123A8"/>
		<stop  offset="0.2021" style="stop-color:#2D29AA"/>
		<stop  offset="0.4733" style="stop-color:#223AAF"/>
		<stop  offset="0.7822" style="stop-color:#1056B8"/>
		<stop  offset="1" style="stop-color:#006EC0"/>
	</linearGradient>
	<circle class="st6" cx="56.8" cy="36.8" r="66.5"/>
	<g id="_x31_tbkpS.tif_2_">
		<g>
			<path class="st3" d="M66.9,12.1c0,5.7-2.6,11-7,15.3c-1.3,1.3-1.9,2.5-1.2,4.3c0.1,0.3,0.1,0.6,0.1,0.8c0.5,4,0.5,4,4.3,4.6
				c4.7,0.8,7.8,3.6,9.2,8c1.5,4.9-0.7,8.8-4,12.1c-0.8,0.8-1.9,1.6-2.9,2.1c-1.3,0.6-1.5,1.4-1.2,2.7c0.7,2.9,0.9,5.8,0.2,8.8
				c-1.4,5.5-7,8.9-12,7.2c-2.8-1-4.7-3.3-4.6-5.9c0-2.3,1.2-4,3.1-4.8c1.8-0.8,3.4-0.3,4.6,1c1.5,1.6,1.5,3.5,0.9,5.5
				c-0.2,0.8-1.7,1.5-0.7,2.3c0.9,0.7,2.2,0,3.1-0.7c2.2-1.7,3.5-3.8,3.6-6.6c0-1.4,0-2.8-0.1-4.2c-0.3-3.1-0.3-3.1-3.4-2.7
				c-11.3,1.6-20.7-10.3-17.2-21.7c2-6.5,6.3-11.2,11.5-15.3c1.4-1.1,1.8-2,1.4-3.8c-1.9-7.8-1.5-15.4,2.3-22.6
				c0.8-1.4,1.4-3.5,3.2-3.6c1.8,0,2.6,2,3.4,3.4C65.8,1.9,67.1,7.3,66.9,12.1z M57.3,59.3c0.4,0,0.8,0,1.3,0
				c2.7-0.3,2.8-0.5,2.3-3.1c-0.7-3.5-1.2-7.1-1.8-10.6c-0.4-2.3-1.2-2.7-3.2-1.3c-3.3,2.2-3.7,6-0.8,9.5c0.5,0.6,1.4,1.2,0.8,2
				c-0.6,0.7-1.5,0.3-2.1-0.1c-2.9-1.9-4.5-5.8-3.8-9.3c0.8-3.7,3.1-6.3,6.3-8c1-0.5,1.4-1,1.1-2.1c-0.3-1.1-0.4-2.2-0.6-3.3
				c-0.2-1.3-0.7-1.5-1.8-0.7c-2.1,1.7-4.3,3.5-6.2,5.4c-2.7,2.8-4.3,6.1-4.4,10C44,53.9,49.9,59.2,57.3,59.3z M56.6,14.5
				c0,1-0.1,2,0.2,2.9c0.3,1.1-0.4,2.9,0.8,3.2c1.2,0.3,1.9-1.4,2.7-2.3c3.1-3.7,5-7.8,3.2-12.8c-0.4-1-0.6-2.4-1.9-2.5
				c-1.2-0.1-1.9,1.1-2.5,2C57.1,7.9,56.5,11.1,56.6,14.5z M68.6,50.3c0-3.8-2.4-6.6-6.2-7.3c-1.1-0.2-1.6,0-1.4,1.3
				c0.7,4,1.4,8,2.1,12c0.1,0.7,0.3,1,1.1,0.7C66.6,56,68.6,53.1,68.6,50.3z"/>
		</g>
	</g>
</g>
</svg>
