<?xml version="1.0" encoding="utf-8"?>
<!-- Generator: Adobe Illustrator 19.1.1, SVG Export Plug-In . SVG Version: 6.00 Build 0)  -->
<svg version="1.1" xmlns="http://www.w3.org/2000/svg" xmlns:xlink="http://www.w3.org/1999/xlink" x="0px" y="0px"
	 viewBox="0 0 90 90" style="enable-background:new 0 0 90 90;" xml:space="preserve">
<style type="text/css">
	.st0{fill:#FFFFFF;}
	.st1{display:none;}
	.st2{display:inline;fill:#FFFFFF;}
</style>
<g id="Capa_1">
	<path class="st0" d="M78.3,37.9c0-1.4-0.8-2.6-1.8-2.9V32c0-0.9-0.7-1.6-1.6-1.6c-0.9,0-1.6,0.7-1.6,1.6v4.9H66v-2.2H54.9
		c-1.3,0-2.4-1.1-2.4-2.4c0-0.7,0.3-1.2,0.7-1.7c0.4-0.4,1-0.7,1.7-0.7H66v-2.4H54.9c-1.3,0-2.4-1.1-2.4-2.4c0-0.6,0.3-1.2,0.7-1.7
		c0.4-0.4,1-0.7,1.7-0.7H66v-2.4H54.9c-1.3,0-2.4-1.1-2.4-2.4c0-0.7,0.3-1.2,0.7-1.7c0.4-0.4,1-0.7,1.7-0.7H66v-0.1
		c0-8.2-6.6-14.8-14.8-14.8h-9.9c-8.2,0-14.8,6.6-14.8,14.8v0.1h11.1c0.7,0,1.2,0.3,1.7,0.7c0.4,0.4,0.7,1,0.7,1.7
		c0,1.3-1.1,2.4-2.4,2.4H26.5v2.4h11.1c0.7,0,1.2,0.3,1.7,0.7c0.4,0.4,0.7,1,0.7,1.7c0,1.3-1.1,2.4-2.4,2.4H26.5V30h11.1
		c0.7,0,1.2,0.3,1.7,0.7c0.4,0.4,0.7,1,0.7,1.7c0,1.3-1.1,2.4-2.4,2.4H26.5v2.2h-7.3V32c0-0.9-0.7-1.6-1.6-1.6
		c-0.9,0-1.6,0.7-1.6,1.6V35c-1,0.3-1.8,1.5-1.8,2.9c0,1.5,0.9,2.8,2,2.9c1.6,12.9,12,23.1,25.1,24.3v1.1h3.4v14.1H31.3
		c-2.6,0-4.8,2.1-4.8,4.8s2.1,4.8,4.8,4.8h29.9c2.6,0,4.8-2.1,4.8-4.8s-2.1-4.8-4.8-4.8H47.8V66.3h3.4v-1.1
		c13-1.2,23.5-11.4,25.1-24.3C77.4,40.7,78.3,39.5,78.3,37.9z M51.2,62v-1.8h-9.9V62c-11.9-1.2-21.4-11-22.1-23.1h7.3v-1.8h11.1
		c0.7,0,1.2,0.3,1.7,0.7c0.1,0.1,0.2,0.2,0.3,0.3c0,0,0,0.1,0.1,0.1c0,0.1,0.1,0.2,0.1,0.2c0,0,0,0.1,0.1,0.1c0,0.1,0.1,0.2,0.1,0.3
		c0,0,0,0,0,0h0c0,0.2,0.1,0.3,0.1,0.5c0,1.3-1.1,2.4-2.4,2.4H26.5V42c0,8.2,6.6,14.8,14.8,14.8h9.9C59.4,56.8,66,50.1,66,42v-0.1
		H54.9c-1.3,0-2.4-1.1-2.4-2.4c0-0.2,0-0.4,0.1-0.5h0c0,0,0,0,0,0c0-0.1,0.1-0.2,0.1-0.3c0,0,0-0.1,0.1-0.1c0-0.1,0.1-0.2,0.1-0.2
		c0,0,0-0.1,0.1-0.1c0.1-0.1,0.2-0.2,0.3-0.3c0.4-0.4,1-0.7,1.7-0.7H66V39h7.3C72.6,51.1,63.1,60.8,51.2,62z"/>
</g>
<g id="Capa_2" class="st1">
	<path id="XMLID_35_" class="st2" d="M39.3,90V15.8H4.9V90h34.2L39.3,90z M18.5,79.2H9.4v-8.9h9.1V79.2z M18.5,63.8H9.4v-8.9h9.1
		V63.8z M18.5,48.4H9.4v-8.9h9.1V48.4z M18.5,33H9.4v-8.9h9.1V33z M35.6,79.2h-9.1v-8.9h9.1V79.2z M35.6,63.8h-9.1v-8.9h9.1V63.8z
		 M35.6,48.4h-9.1v-8.9h9.1V48.4z M35.6,33h-9.1v-8.9h9.1V33z"/>
	<path id="XMLID_24_" class="st2" d="M41.6,90h45.8l0.1-7.7V0.7H41.6L41.6,90 M70.8,85H58.3V74.8h12.5V85z M82.6,70h-37v-4.3h37V70z
		 M82.6,62.3h-37V58h37V62.3z M82.6,54.6h-37v-4.3h37V54.6z M82.6,46.9h-37v-4.3h37V46.9z M82.6,39.2h-37v-4.3h37V39.2z M82.6,31.5
		h-37v-4.3h37V31.5z M82.6,23.8h-37v-4.3h37V23.8z M82.6,16.1h-37v-4.3h37V16.1z"/>
</g>
</svg>
