<?xml version="1.0" encoding="utf-8"?>
<!-- Generator: Adobe Illustrator 19.1.1, SVG Export Plug-In . SVG Version: 6.00 Build 0)  -->
<svg version="1.1" xmlns="http://www.w3.org/2000/svg" xmlns:xlink="http://www.w3.org/1999/xlink" x="0px" y="0px"
	 viewBox="0 0 90 90" style="enable-background:new 0 0 90 90;" xml:space="preserve">
<style type="text/css">
	.st0{display:none;}
	.st1{display:inline;fill:#FFFFFF;}
	.st2{display:inline;}
	.st3{fill:#FFFFFF;}
	.st4{fill-rule:evenodd;clip-rule:evenodd;fill:#FFFFFF;}
</style>
<g id="Capa_1" class="st0">
	<path class="st1" d="M78.3,37.9c0-1.4-0.8-2.6-1.8-2.9V32c0-0.9-0.7-1.6-1.6-1.6c-0.9,0-1.6,0.7-1.6,1.6v4.9H66v-2.2H54.9
		c-1.3,0-2.4-1.1-2.4-2.4c0-0.7,0.3-1.2,0.7-1.7c0.4-0.4,1-0.7,1.7-0.7H66v-2.4H54.9c-1.3,0-2.4-1.1-2.4-2.4c0-0.6,0.3-1.2,0.7-1.7
		c0.4-0.4,1-0.7,1.7-0.7H66v-2.4H54.9c-1.3,0-2.4-1.1-2.4-2.4c0-0.7,0.3-1.2,0.7-1.7c0.4-0.4,1-0.7,1.7-0.7H66v-0.1
		c0-8.2-6.6-14.8-14.8-14.8h-9.9c-8.2,0-14.8,6.6-14.8,14.8v0.1h11.1c0.7,0,1.2,0.3,1.7,0.7c0.4,0.4,0.7,1,0.7,1.7
		c0,1.3-1.1,2.4-2.4,2.4H26.5v2.4h11.1c0.7,0,1.2,0.3,1.7,0.7c0.4,0.4,0.7,1,0.7,1.7c0,1.3-1.1,2.4-2.4,2.4H26.5V30h11.1
		c0.7,0,1.2,0.3,1.7,0.7c0.4,0.4,0.7,1,0.7,1.7c0,1.3-1.1,2.4-2.4,2.4H26.5v2.2h-7.3V32c0-0.9-0.7-1.6-1.6-1.6
		c-0.9,0-1.6,0.7-1.6,1.6V35c-1,0.3-1.8,1.5-1.8,2.9c0,1.5,0.9,2.8,2,2.9c1.6,12.9,12,23.1,25.1,24.3v1.1h3.4v14.1H31.3
		c-2.6,0-4.8,2.1-4.8,4.8s2.1,4.8,4.8,4.8h29.9c2.6,0,4.8-2.1,4.8-4.8s-2.1-4.8-4.8-4.8H47.8V66.3h3.4v-1.1
		c13-1.2,23.5-11.4,25.1-24.3C77.4,40.7,78.3,39.5,78.3,37.9z M51.2,62v-1.8h-9.9V62c-11.9-1.2-21.4-11-22.1-23.1h7.3v-1.8h11.1
		c0.7,0,1.2,0.3,1.7,0.7c0.1,0.1,0.2,0.2,0.3,0.3c0,0,0,0.1,0.1,0.1c0,0.1,0.1,0.2,0.1,0.2c0,0,0,0.1,0.1,0.1c0,0.1,0.1,0.2,0.1,0.3
		c0,0,0,0,0,0h0c0,0.2,0.1,0.3,0.1,0.5c0,1.3-1.1,2.4-2.4,2.4H26.5V42c0,8.2,6.6,14.8,14.8,14.8h9.9C59.4,56.8,66,50.1,66,42v-0.1
		H54.9c-1.3,0-2.4-1.1-2.4-2.4c0-0.2,0-0.4,0.1-0.5h0c0,0,0,0,0,0c0-0.1,0.1-0.2,0.1-0.3c0,0,0-0.1,0.1-0.1c0-0.1,0.1-0.2,0.1-0.2
		c0,0,0-0.1,0.1-0.1c0.1-0.1,0.2-0.2,0.3-0.3c0.4-0.4,1-0.7,1.7-0.7H66V39h7.3C72.6,51.1,63.1,60.8,51.2,62z"/>
	<g id="_x31_tbkpS.tif" class="st2">
		<g>
			<path class="st3" d="M57.7,19.6c0,6-2.7,11.6-7.4,16.3c-1.4,1.4-2,2.7-1.3,4.5c0.1,0.3,0.1,0.6,0.1,0.9c0.5,4.3,0.5,4.2,4.6,4.9
				c5,0.8,8.3,3.8,9.7,8.5c1.6,5.2-0.7,9.3-4.3,12.9c-0.9,0.9-2,1.7-3.1,2.2c-1.4,0.6-1.6,1.5-1.2,2.9c0.7,3.1,1,6.2,0.2,9.3
				c-1.5,5.8-7.4,9.4-12.7,7.6c-3-1-4.9-3.5-4.9-6.3c0-2.4,1.3-4.3,3.3-5.1c1.9-0.8,3.6-0.3,4.9,1.1c1.6,1.7,1.6,3.7,0.9,5.9
				c-0.3,0.8-1.8,1.6-0.7,2.4c1,0.7,2.3-0.1,3.3-0.8c2.3-1.8,3.7-4.1,3.8-7c0-1.5,0-3-0.1-4.5c-0.3-3.3-0.3-3.3-3.6-2.8
				c-12,1.7-22-10.9-18.2-23c2.1-6.9,6.7-11.9,12.2-16.2c1.5-1.2,1.9-2.2,1.5-4.1c-2-8.2-1.6-16.3,2.5-24c0.8-1.5,1.5-3.8,3.4-3.8
				c1.9,0,2.7,2.1,3.7,3.6C56.4,8.8,57.9,14.5,57.7,19.6z M47.4,69.7c0.4,0,0.9,0,1.3,0c2.9-0.3,3-0.5,2.4-3.3
				c-0.7-3.7-1.3-7.5-1.9-11.3c-0.4-2.5-1.2-2.8-3.4-1.4c-3.5,2.4-3.9,6.4-0.9,10c0.5,0.6,1.5,1.2,0.8,2.1c-0.6,0.7-1.6,0.3-2.3-0.1
				c-3.1-2-4.8-6.2-4-9.8c0.8-3.9,3.3-6.6,6.7-8.5c1-0.6,1.5-1.1,1.1-2.3c-0.3-1.1-0.5-2.3-0.6-3.5c-0.2-1.4-0.7-1.6-1.9-0.7
				c-2.3,1.8-4.5,3.7-6.6,5.7c-2.9,2.9-4.5,6.5-4.7,10.6C33.3,64,39.6,69.7,47.4,69.7z M46.7,22.2c0.1,1-0.1,2.1,0.2,3.1
				c0.3,1.2-0.4,3.1,0.8,3.4c1.3,0.3,2-1.5,2.9-2.5c3.3-4,5.4-8.3,3.4-13.6c-0.4-1.1-0.6-2.6-2-2.7c-1.3-0.1-2,1.2-2.6,2.2
				C47.3,15.2,46.6,18.6,46.7,22.2z M59.5,60.2c0-4.1-2.5-7.1-6.6-7.8c-1.1-0.2-1.7,0.1-1.5,1.4c0.8,4.3,1.5,8.5,2.2,12.8
				c0.1,0.7,0.3,1.1,1.1,0.7C57.4,66.2,59.5,63.1,59.5,60.2z"/>
		</g>
	</g>
</g>
<g id="Capa_3">
	<g>
		<path class="st4" d="M52.4,68.7l7.9-28.4c0,0,0,0,0,0c5.1-1.2,12.3-4.1,13.2,0c1.1,4.9,2.5,16.7,3.9,28.1"/>
		<path class="st4" d="M52.9,68.7L45,40.4c0,0,0,0,0,0c-5.1-1.2-12.3-4.1-13.2,0c-1.1,4.9-2.5,16.7-3.9,28.1"/>
		<path class="st4" d="M31.9,40c1.3-4.5,13.1-5.5,16.3-8.1c1.5,1.3,2.6,1.6,4.3,1.6c1.7,0,2.8-0.3,4.3-1.7
			c2.3,1.9,14.6,3.4,16.7,7.9"/>
		<polygon class="st4" points="44.5,34.1 44.1,44.1 52.8,68.5 60.8,44.1 60.3,33.8 56.8,31.8 48.2,31.9 		"/>
		<polygon class="st4" points="45.7,33.3 52.5,65.6 41.4,47.9 42.8,44.8 39.6,42.3 43.9,34.3 		"/>
		<polygon class="st4" points="45.7,33.3 52.5,65.6 42.4,46.5 44.1,44.1 40.9,41.6 43.9,34.3 		"/>
		<polygon class="st4" points="59.4,33.3 52.5,65.6 63.6,47.9 62.1,44.8 65.3,42.3 61.9,34.4 		"/>
		<path class="st4" d="M52.6,33.4c4.2,0,8.1-4.8,10.1-10.7c0.1,0.1,0.3,0.2,0.4,0.2c0.8,0.1,1.8-1.4,2.1-3.5c0.3-2.1-0.1-3.9-0.9-4
			c-0.1,0-0.1,0-0.2,0c0.4-7.3-2.6-14-11.6-14c-9,0-12,6.7-11.6,14c-0.1,0-0.2,0-0.3,0c-0.8,0.1-1.2,1.9-0.9,4
			c0.3,2.1,1.3,3.6,2.1,3.5c0.2,0,0.3-0.1,0.5-0.3C44.5,28.6,48.4,33.4,52.6,33.4z"/>
		<path class="st4" d="M64.2,15.4c0.4-7.3-2.6-14-11.6-14c-9,0-12,6.7-11.6,14c0.7,0.2,1.5,1.5,1.8,3.3c0.6,0.4,1,0.2,1-1.3
			c0-4.3,0.5-8.2,3.4-9.1c2.7-0.9,3.3,1,5.4,1c2.1,0,2.7-1.8,5.4-1c2.8,0.8,3.4,4.8,3.4,9.1c0,1.4,0.4,1.7,0.9,1.4
			C62.6,16.9,63.4,15.5,64.2,15.4z"/>
		<path class="st4" d="M60.7,6.1c-1.2,2.3-12.9,9-16.7,9.3C40.1,15.7,43.7,0.1,60.7,6.1z"/>
		<path class="st4" d="M55.1,6.1c0.5,2.3,5.5,9,7.2,9.3C64,15.7,62.4,0.1,55.1,6.1z"/>
	</g>
	<path class="st3" d="M9.5,70.2c0-7.2-0.5-6.6-1.1-6.6c-0.7,0-1.2-0.5-1.3,6.7L6.3,51c-0.1-9.4,0.6-11,1.6-12.3
		c1.1-1.4,2.6-2.5,4.2-3l15.1-5.3c0.6-0.2,1.3,0.1,1.5,0.7c0.2,0.6-0.1,1.3-0.7,1.5L12.9,38c-1.1,0.4-2.2,1.2-3.1,2.3
		c-0.7,0.9-1.1,1.9-1.1,10.7L9.5,70.2z"/>
	<path class="st4" d="M9,73.5c4.4,0,8,1.7,8-2.7c0-4.4-3.6-8-8-8c-4.4,0-8,3.6-8,8C1,75.1,4.6,73.5,9,73.5z"/>
	<polygon class="st4" points="11,88.9 79.1,88.9 90,70.6 0.1,70.6 	"/>
	<path class="st4" d="M17,31.3l10.7-3.7c1.5-0.5,3.2,0.3,3.7,1.8l0,0c0.5,1.5-0.3,3.2-1.8,3.7l-10.7,3.7c-1.5,0.5-3.2-0.3-3.7-1.8
		l0,0C14.7,33.4,15.5,31.8,17,31.3z"/>
	<path class="st4" d="M20.6,67.7"/>
</g>
<g id="Capa_2" class="st0">
	<path id="XMLID_35_" class="st1" d="M39.3,90V15.8H4.9V90h34.2L39.3,90z M18.5,79.2H9.4v-8.9h9.1V79.2z M18.5,63.8H9.4v-8.9h9.1
		V63.8z M18.5,48.4H9.4v-8.9h9.1V48.4z M18.5,33H9.4v-8.9h9.1V33z M35.6,79.2h-9.1v-8.9h9.1V79.2z M35.6,63.8h-9.1v-8.9h9.1V63.8z
		 M35.6,48.4h-9.1v-8.9h9.1V48.4z M35.6,33h-9.1v-8.9h9.1V33z"/>
	<path id="XMLID_24_" class="st1" d="M41.6,90h45.8l0.1-7.7V0.7H41.6L41.6,90 M70.8,85H58.3V74.8h12.5V85z M82.6,70h-37v-4.3h37V70z
		 M82.6,62.3h-37V58h37V62.3z M82.6,54.6h-37v-4.3h37V54.6z M82.6,46.9h-37v-4.3h37V46.9z M82.6,39.2h-37v-4.3h37V39.2z M82.6,31.5
		h-37v-4.3h37V31.5z M82.6,23.8h-37v-4.3h37V23.8z M82.6,16.1h-37v-4.3h37V16.1z"/>
</g>
</svg>
