<?xml version="1.0" encoding="utf-8"?>
<!-- Generator: Adobe Illustrator 19.1.1, SVG Export Plug-In . SVG Version: 6.00 Build 0)  -->
<svg version="1.1" xmlns="http://www.w3.org/2000/svg" xmlns:xlink="http://www.w3.org/1999/xlink" x="0px" y="0px"
	 viewBox="0 0 90 90" style="enable-background:new 0 0 90 90;" xml:space="preserve">
<style type="text/css">
	.st0{display:none;}
	.st1{display:inline;fill:#FFFFFF;}
	.st2{fill:#FFFFFF;}
</style>
<g id="Capa_1" class="st0">
	<path class="st1" d="M76.1,43.6c0-1.3-0.7-2.3-1.6-2.6v-2.7c0-0.8-0.6-1.4-1.4-1.4c-0.8,0-1.4,0.6-1.4,1.4v4.4h-6.6v-1.9h-9.9
		c-1.2,0-2.1-0.9-2.1-2.1c0-0.6,0.2-1.1,0.6-1.5c0.4-0.4,0.9-0.6,1.5-0.6h9.9v-2.2h-9.9c-1.2,0-2.1-0.9-2.1-2.1
		c0-0.6,0.2-1.1,0.6-1.5c0.4-0.4,0.9-0.6,1.5-0.6h9.9v-2.2h-9.9c-1.2,0-2.1-0.9-2.1-2.1c0-0.6,0.2-1.1,0.6-1.5
		c0.4-0.4,0.9-0.6,1.5-0.6h9.9v-0.1c0-7.3-5.9-13.2-13.2-13.2h-8.9c-7.3,0-13.2,5.9-13.2,13.2v0.1h9.9c0.6,0,1.1,0.2,1.5,0.6
		c0.4,0.4,0.6,0.9,0.6,1.5c0,1.2-0.9,2.1-2.1,2.1h-9.9v2.2h9.9c0.6,0,1.1,0.2,1.5,0.6c0.4,0.4,0.6,0.9,0.6,1.5
		c0,1.2-0.9,2.1-2.1,2.1h-9.9v2.2h9.9c0.6,0,1.1,0.2,1.5,0.6c0.4,0.4,0.6,0.9,0.6,1.5c0,1.2-0.9,2.1-2.1,2.1h-9.9v1.9h-6.6v-4.4
		c0-0.8-0.6-1.4-1.4-1.4c-0.8,0-1.4,0.6-1.4,1.4V41c-0.9,0.3-1.6,1.3-1.6,2.6c0,1.4,0.8,2.5,1.8,2.6c1.4,11.5,10.7,20.6,22.4,21.7v1
		h3v12.6H34.1c-2.4,0-4.3,1.9-4.3,4.3c0,2.4,1.9,4.3,4.3,4.3h26.7c2.4,0,4.3-1.9,4.3-4.3c0-2.4-1.9-4.3-4.3-4.3H48.9V68.8h3v-1
		c11.6-1,21-10.2,22.4-21.7C75.3,46,76.1,44.9,76.1,43.6z M51.9,65.1v-1.6h-8.8v1.6C32.4,64,24,55.3,23.4,44.5h6.5v-1.6h9.9
		c0.6,0,1.1,0.2,1.5,0.6c0.1,0.1,0.2,0.2,0.2,0.3c0,0,0,0.1,0.1,0.1c0,0.1,0.1,0.1,0.1,0.2c0,0,0,0.1,0.1,0.1c0,0.1,0.1,0.2,0.1,0.3
		c0,0,0,0,0,0h0c0,0.1,0.1,0.3,0.1,0.5c0,1.2-0.9,2.1-2.1,2.1h-9.9v0.1c0,7.3,5.9,13.2,13.2,13.2h8.9c7.3,0,13.2-5.9,13.2-13.2v-0.1
		h-9.9c-1.2,0-2.1-0.9-2.1-2.1c0-0.2,0-0.3,0.1-0.5h0c0,0,0,0,0,0c0-0.1,0.1-0.2,0.1-0.3c0,0,0-0.1,0.1-0.1c0-0.1,0.1-0.1,0.1-0.2
		c0,0,0-0.1,0.1-0.1c0.1-0.1,0.1-0.2,0.2-0.3c0.4-0.4,0.9-0.6,1.5-0.6h9.9v1.6h6.5C71,55.3,62.6,64,51.9,65.1z"/>
</g>
<g id="Capa_2">
	<path id="XMLID_35_" class="st2" d="M39.3,90V15.8H4.9V90h34.2L39.3,90z M18.5,79.2H9.4v-8.9h9.1V79.2z M18.5,63.8H9.4v-8.9h9.1
		V63.8z M18.5,48.4H9.4v-8.9h9.1V48.4z M18.5,33H9.4v-8.9h9.1V33z M35.6,79.2h-9.1v-8.9h9.1V79.2z M35.6,63.8h-9.1v-8.9h9.1V63.8z
		 M35.6,48.4h-9.1v-8.9h9.1V48.4z M35.6,33h-9.1v-8.9h9.1V33z"/>
	<path id="XMLID_24_" class="st2" d="M41.6,90h45.8l0.1-7.7V0.7H41.6L41.6,90 M70.8,85H58.3V74.8h12.5V85z M82.6,70h-37v-4.3h37V70z
		 M82.6,62.3h-37V58h37V62.3z M82.6,54.6h-37v-4.3h37V54.6z M82.6,46.9h-37v-4.3h37V46.9z M82.6,39.2h-37v-4.3h37V39.2z M82.6,31.5
		h-37v-4.3h37V31.5z M82.6,23.8h-37v-4.3h37V23.8z M82.6,16.1h-37v-4.3h37V16.1z"/>
</g>
</svg>
