<?xml version="1.0" encoding="utf-8"?>
<!-- Generator: Adobe Illustrator 19.1.1, SVG Export Plug-In . SVG Version: 6.00 Build 0)  -->
<svg version="1.1" xmlns="http://www.w3.org/2000/svg" xmlns:xlink="http://www.w3.org/1999/xlink" x="0px" y="0px"
	 viewBox="0 0 160 70" style="enable-background:new 0 0 160 70;" xml:space="preserve">
<style type="text/css">
	.st0{display:none;}
	.st1{display:inline;fill:url(#SVGID_1_);}
	.st2{display:inline;fill:#FFFFFF;}
	.st3{font-family:'AlternateGothicNo2BT-Regular';}
	.st4{font-size:30px;}
	.st5{display:inline;fill:url(#SVGID_2_);}
	.st6{font-size:22.6087px;}
	.st7{fill:url(#SVGID_3_);}
	.st8{fill:#FFFFFF;}
</style>
<g id="Capa_1" class="st0">
	
		<linearGradient id="SVGID_1_" gradientUnits="userSpaceOnUse" x1="80.0492" y1="71.5035" x2="80.0492" y2="-4.1845" gradientTransform="matrix(1 0 0 -1 0 70)">
		<stop  offset="0" style="stop-color:#1000A5"/>
		<stop  offset="0.2578" style="stop-color:#22069E"/>
		<stop  offset="0.728" style="stop-color:#3E1092"/>
		<stop  offset="1" style="stop-color:#49148E"/>
	</linearGradient>
	<path class="st1" d="M149.1,70H10.9C5.4,70,1,65.5,1,60.1V10.9C0.9,5.5,5.4,1,10.9,1h138.3c5.5,0,9.9,4.5,9.9,9.9v49.2
		C159.1,65.5,154.6,70,149.1,70z"/>
	<text transform="matrix(1.0179 0 0 1 32.2539 45.0068)" class="st2 st3 st4">Saber más</text>
</g>
<g id="Capa_2" class="st0">
	
		<linearGradient id="SVGID_2_" gradientUnits="userSpaceOnUse" x1="79.0508" y1="71.5035" x2="79.0508" y2="-4.1845" gradientTransform="matrix(1 0 0 -1 0 70)">
		<stop  offset="0" style="stop-color:#3123A8"/>
		<stop  offset="0.2021" style="stop-color:#2D29AA"/>
		<stop  offset="0.4733" style="stop-color:#223AAF"/>
		<stop  offset="0.7822" style="stop-color:#1056B8"/>
		<stop  offset="1" style="stop-color:#006EC0"/>
	</linearGradient>
	<path class="st5" d="M148.1,70H9.9C4.4,70,0,65.5,0,60.1V10.9C-0.1,5.5,4.4,1,9.9,1h138.3c5.5,0,9.9,4.5,9.9,9.9v49.2
		C158.1,65.5,153.6,70,148.1,70z"/>
	<text transform="matrix(1.3507 0 0 1 16.636 45.0068)" class="st2 st3 st6">Iniciar sesión</text>
</g>
<g id="Capa_3">
	
		<linearGradient id="SVGID_3_" gradientUnits="userSpaceOnUse" x1="79.0508" y1="71.5035" x2="79.0508" y2="-4.1845" gradientTransform="matrix(1 0 0 -1 0 70)">
		<stop  offset="0" style="stop-color:#3123A8"/>
		<stop  offset="0.2021" style="stop-color:#2D29AA"/>
		<stop  offset="0.4733" style="stop-color:#223AAF"/>
		<stop  offset="0.7822" style="stop-color:#1056B8"/>
		<stop  offset="1" style="stop-color:#006EC0"/>
	</linearGradient>
	<path class="st7" d="M148.1,70H9.9C4.4,70,0,65.5,0,60.1V10.9C-0.1,5.5,4.4,1,9.9,1h138.3c5.5,0,9.9,4.5,9.9,9.9v49.2
		C158.1,65.5,153.6,70,148.1,70z"/>
	<text transform="matrix(1.3507 0 0 1 30.9193 42.4766)" class="st8 st3 st6">Regístrate</text>
</g>
</svg>
