<?xml version="1.0" encoding="utf-8"?>
<!-- Generator: Adobe Illustrator 19.1.1, SVG Export Plug-In . SVG Version: 6.00 Build 0)  -->
<svg version="1.1" xmlns="http://www.w3.org/2000/svg" xmlns:xlink="http://www.w3.org/1999/xlink" x="0px" y="0px"
	 viewBox="0 0 160 70" style="enable-background:new 0 0 160 70;" xml:space="preserve">
<style type="text/css">
	.st0{display:none;}
	.st1{display:inline;fill:url(#SVGID_1_);}
	.st2{display:inline;fill:#FFFFFF;}
	.st3{font-family:'AlternateGothicNo2BT-Regular';}
	.st4{font-size:30px;}
	.st5{fill:url(#SVGID_2_);}
	.st6{fill:#FFFFFF;}
</style>
<g id="Capa_1" class="st0">
	
		<linearGradient id="SVGID_1_" gradientUnits="userSpaceOnUse" x1="80.0492" y1="71.5035" x2="80.0492" y2="-4.1845" gradientTransform="matrix(1 0 0 -1 0 70)">
		<stop  offset="0" style="stop-color:#1000A5"/>
		<stop  offset="0.2578" style="stop-color:#22069E"/>
		<stop  offset="0.728" style="stop-color:#3E1092"/>
		<stop  offset="1" style="stop-color:#49148E"/>
	</linearGradient>
	<path class="st1" d="M149.1,70H10.9C5.4,70,1,65.5,1,60.1V10.9C0.9,5.5,5.4,1,10.9,1h138.3c5.5,0,9.9,4.5,9.9,9.9v49.2
		C159.1,65.5,154.6,70,149.1,70z"/>
	<text transform="matrix(1.0179 0 0 1 32.2539 45.0068)" class="st2 st3 st4">Saber más</text>
</g>
<g id="Capa_2">
	
		<linearGradient id="SVGID_2_" gradientUnits="userSpaceOnUse" x1="79.785" y1="72.5035" x2="79.785" y2="-3.1845" gradientTransform="matrix(1 0 0 -1 0 70)">
		<stop  offset="0" style="stop-color:#B34300"/>
		<stop  offset="0.1551" style="stop-color:#B74900"/>
		<stop  offset="0.3631" style="stop-color:#C25A00"/>
		<stop  offset="0.6012" style="stop-color:#D57600"/>
		<stop  offset="0.8598" style="stop-color:#EF9D00"/>
		<stop  offset="1" style="stop-color:#FFB500"/>
	</linearGradient>
	<path class="st5" d="M148.8,69H10.6c-5.5,0-9.9-4.5-9.9-9.9V9.9C0.6,4.5,5.1,0,10.6,0h138.3c5.5,0,9.9,4.5,9.9,9.9v49.2
		C158.8,64.5,154.3,69,148.8,69z"/>
	<text transform="matrix(1.0179 0 0 1 31.3699 44.0068)" class="st6 st3 st4">Saber más</text>
</g>
</svg>
