<?xml version="1.0" encoding="utf-8"?>
<!-- Generator: Adobe Illustrator 19.1.1, SVG Export Plug-In . SVG Version: 6.00 Build 0)  -->
<svg version="1.1" xmlns="http://www.w3.org/2000/svg" xmlns:xlink="http://www.w3.org/1999/xlink" x="0px" y="0px"
	 viewBox="-12 -32 135 135" style="enable-background:new -12 -32 135 135;" xml:space="preserve">
<style type="text/css">
	.st0{display:none;}
	.st1{display:inline;}
	.st2{fill:url(#SVGID_1_);}
	.st3{fill:#FFFFFF;}
	.st4{fill:url(#SVGID_2_);}
	.st5{fill:url(#SVGID_3_);}
</style>
<g id="Capa_1" class="st0">
	<g id="Capa_1_2_">
		<g id="Capa_1_1_" class="st1">
			<g>
				
					<linearGradient id="SVGID_1_" gradientUnits="userSpaceOnUse" x1="43.5" y1="-51.9134" x2="43.5" y2="82.0866" gradientTransform="matrix(1 0 0 1 0 2)">
					<stop  offset="0" style="stop-color:#1000A5"/>
					<stop  offset="0.2578" style="stop-color:#22069E"/>
					<stop  offset="0.728" style="stop-color:#3E1092"/>
					<stop  offset="1" style="stop-color:#49148E"/>
				</linearGradient>
				<circle class="st2" cx="43.5" cy="4.3" r="67"/>
				<path class="st3" d="M71.4-2.2c0-1.2-0.7-2.3-1.6-2.5v-2.7c0-0.8-0.6-1.4-1.4-1.4S67-8.2,67-7.4v4.3h-6.4V-5H51
					c-1.1,0-2.1-0.9-2.1-2.1c0-0.6,0.2-1.1,0.6-1.5s0.9-0.6,1.5-0.6h9.7v-2.1H51c-1.1,0-2.1-0.9-2.1-2.1c0-0.6,0.2-1.1,0.6-1.5
					s0.9-0.6,1.5-0.6h9.7v-2.1H51c-1.1,0-2.1-0.9-2.1-2.1c0-0.6,0.2-1.1,0.6-1.5s0.9-0.6,1.5-0.6h9.7v-0.1c0-7.1-5.8-12.9-12.9-12.9
					h-8.7c-7.1,0-12.9,5.8-12.9,12.9v0.1h9.7c0.6,0,1.1,0.2,1.5,0.6s0.6,0.9,0.6,1.5c0,1.1-0.9,2.1-2.1,2.1h-9.7v2.1h9.7
					c0.6,0,1.1,0.2,1.5,0.6S38-14,38-13.4c0,1.1-0.9,2.1-2.1,2.1h-9.7v2.1h9.7c0.6,0,1.1,0.2,1.5,0.6S38-7.7,38-7.1
					C38-6,37.1-5,35.9-5h-9.7v1.9h-6.4v-4.3c0-0.8-0.6-1.4-1.4-1.4S17-8.2,17-7.4v2.7c-0.9,0.3-1.6,1.3-1.6,2.5
					c0,1.3,0.8,2.4,1.8,2.6c1.4,11.3,10.5,20.2,21.9,21.2v0.9H42v12.3H30.4c-2.3,0-4.2,1.9-4.2,4.2c0,2.3,1.9,4.2,4.2,4.2h26.1
					c2.3,0,4.2-1.9,4.2-4.2c0-2.3-1.9-4.2-4.2-4.2H44.8V22.5h2.9v-0.9c11.4-1,20.5-9.9,21.9-21.2C70.7,0.2,71.4-0.9,71.4-2.2z
					 M47.8,18.8v-1.6h-8.6v1.6C28.8,17.7,20.5,9.2,19.9-1.3h6.4v-1.6H36c0.6,0,1.1,0.2,1.5,0.6c0.1,0.1,0.2,0.2,0.2,0.3
					c0,0,0,0.1,0.1,0.1c0,0.1,0.1,0.1,0.1,0.2c0,0,0,0.1,0.1,0.1c0,0.1,0.1,0.2,0.1,0.3l0,0l0,0c0,0.1,0.1,0.3,0.1,0.5
					c0,1.1-0.9,2.1-2.1,2.1h-9.7v0.1c0,7.1,5.8,12.9,12.9,12.9H48c7.1,0,12.9-5.8,12.9-12.9V1.3H51c-1.1,0-2.1-0.9-2.1-2.1
					c0-0.2,0-0.3,0.1-0.5l0,0l0,0c0-0.1,0-0.2,0.1-0.3c0,0,0-0.1,0.1-0.1c0-0.1,0.1-0.1,0.1-0.2c0,0,0-0.1,0.1-0.1
					c0.1-0.1,0.1-0.2,0.2-0.3c0.4-0.4,0.9-0.6,1.5-0.6h9.7v1.6H67C66.4,9.3,58.2,17.8,47.8,18.8z"/>
			</g>
		</g>
		<g id="Capa_2" class="st1">
		</g>
	</g>
	<g id="Capa_2_1_" class="st1">
		
			<linearGradient id="SVGID_2_" gradientUnits="userSpaceOnUse" x1="57" y1="98.566" x2="57" y2="-33.434" gradientTransform="matrix(1 0 0 -1 0 72)">
			<stop  offset="0" style="stop-color:#540086"/>
			<stop  offset="0.1493" style="stop-color:#58058C"/>
			<stop  offset="0.3496" style="stop-color:#65149D"/>
			<stop  offset="0.5789" style="stop-color:#792DB9"/>
			<stop  offset="0.8277" style="stop-color:#954FE0"/>
			<stop  offset="1" style="stop-color:#AB6AFF"/>
		</linearGradient>
		<circle class="st4" cx="57" cy="37" r="66"/>
		<g>
			<g>
				<path class="st3" d="M57.7,52.4l6.9-24.7l0,0c4.5-1.1,10.7-3.6,11.5,0c1,4.3,2.2,14.5,3.4,24.4"/>
				<path class="st3" d="M58.2,52.4l-6.9-24.6l0,0c-4.5-1.1-10.7-3.6-11.5,0c-1,4.3-2.2,14.5-3.4,24.4"/>
				<path class="st3" d="M39.9,27.5c1.1-3.9,11.4-4.8,14.1-7c1.3,1.1,2.2,1.4,3.7,1.4s2.4-0.3,3.7-1.4c2,1.7,12.7,2.9,14.5,6.9"/>
				<polygon class="st3" points="50.8,22.3 50.5,31.1 58.1,52.2 65.1,31.1 64.6,22.1 61.5,20.4 54.1,20.4 				"/>
				<polygon class="st3" points="51.9,21.7 57.8,49.8 48.1,34.4 49.4,31.7 46.6,29.5 50.4,22.6 				"/>
				<polygon class="st3" points="51.9,21.7 57.8,49.8 49.1,33.1 50.5,31.1 47.7,28.9 50.4,22.6 				"/>
				<polygon class="st3" points="63.8,21.6 57.8,49.8 67.4,34.4 66.2,31.7 68.9,29.5 66,22.7 				"/>
				<path class="st3" d="M57.9,21.8c3.6,0,7-4.2,8.8-9.3c0.1,0.1,0.2,0.2,0.4,0.2c0.7,0.1,1.6-1.2,1.9-3s0-3.4-0.8-3.5
					c-0.1,0-0.1,0-0.2,0C68.4-0.1,65.7-6,57.9-6S47.5-0.1,47.8,6.2c-0.1,0-0.2,0-0.2,0c-0.7,0.1-1.1,1.7-0.8,3.5s1.1,3.2,1.9,3
					c0.2,0,0.3-0.1,0.4-0.3C50.8,17.6,54.2,21.8,57.9,21.8z"/>
				<path class="st3" d="M68,6.1c0.4-6.3-2.3-12.2-10.1-12.2S47.5-0.2,47.8,6.1c0.6,0.2,1.3,1.3,1.6,2.8c0.5,0.3,0.9,0.1,0.9-1.1
					c0-3.8,0.5-7.1,2.9-7.9s2.9,0.9,4.7,0.9s2.4-1.6,4.7-0.9C65,0.6,65.5,4,65.5,7.8c0,1.2,0.3,1.5,0.8,1.2
					C66.6,7.4,67.3,6.2,68,6.1z"/>
				<path class="st3" d="M64.9-1.9c-1,2-11.2,7.8-14.5,8.1C47,6.4,50.2-7.1,64.9-1.9z"/>
				<path class="st3" d="M60.1-1.9c0.4,2,4.8,7.8,6.3,8.1C67.8,6.4,66.4-7.1,60.1-1.9z"/>
			</g>
			<path class="st3" d="M22.6,53.7c0-6.3-0.4-5.8-1-5.7c-0.6,0-1.1-0.4-1.1,5.8L19.8,37c-0.1-8.2,0.5-9.6,1.4-10.7
				c0.9-1.2,2.3-2.2,3.6-2.6l13.1-4.6c0.5-0.2,1.1,0.1,1.3,0.6s-0.1,1.1-0.6,1.3l-13.1,4.6c-1,0.3-2,1.1-2.7,2
				c-0.6,0.8-1,1.6-0.9,9.3L22.6,53.7z"/>
			<path class="st3" d="M22.1,56.6c3.8,0,6.9,1.4,6.9-2.4c0-3.8-3.1-6.9-6.9-6.9s-6.9,3.1-6.9,6.9C15.2,58,18.3,56.6,22.1,56.6z"/>
			<polygon class="st3" points="20,70.5 93.8,70.5 103.3,54.6 10.6,54.6 			"/>
			<path class="st3" d="M32.2,19.9l9.3-3.3c1.3-0.5,2.7,0.2,3.2,1.5l0,0c0.5,1.3-0.2,2.7-1.5,3.2l-9.3,3.3c-1.3,0.5-2.7-0.2-3.2-1.5
				l0,0C30.2,21.8,30.9,20.4,32.2,19.9z"/>
			<path class="st3" d="M36.2,51.6"/>
		</g>
	</g>
</g>
<g id="Capa_2_2_">
	<g>
		<linearGradient id="SVGID_3_" gradientUnits="userSpaceOnUse" x1="54.7521" y1="-27.6522" x2="54.7521" y2="106.3482">
			<stop  offset="0" style="stop-color:#8A007F"/>
			<stop  offset="0.1441" style="stop-color:#8A0085"/>
			<stop  offset="0.3374" style="stop-color:#8C0096"/>
			<stop  offset="0.5587" style="stop-color:#8E00B2"/>
			<stop  offset="0.7989" style="stop-color:#9000D9"/>
			<stop  offset="1" style="stop-color:#9300FF"/>
		</linearGradient>
		<circle class="st5" cx="54.8" cy="36.9" r="67"/>
		<g>
			<path class="st3" d="M75.5,65.1c-0.9-0.1-1.6-0.8-1.6-1.6c0,0,0-0.1,0-0.1V42.5c0-1,0.7-1.9,1.7-2.1c16.9-3.2,4-38.6,4-38.6H64.7
				c0,0-12.9,35.4,4,38.6c1,0.2,1.7,1.1,1.7,2.1v20.9c0,0,0,0.1,0,0.1c0,0.9-0.7,1.5-1.6,1.6c-5.5,0.4-9.6,1.8-9.6,3.4
				c0,2,5.8,3.5,12.9,3.5c7.1,0,12.9-1.6,12.9-3.5C85.1,66.9,81,65.5,75.5,65.1z"/>
			<path class="st3" d="M40.6,65.1c-0.9-0.1-1.6-0.8-1.6-1.6c0,0,0-0.1,0-0.1V42.5c0-1,0.7-1.9,1.7-2.1c16.9-3.2,4-38.6,4-38.6H29.8
				c0,0-12.9,35.4,4,38.6c1,0.2,1.7,1.1,1.7,2.1v20.9c0,0,0,0.1,0,0.1c0,0.9-0.7,1.5-1.6,1.6c-5.5,0.4-9.6,1.8-9.6,3.4
				c0,2,5.8,3.5,12.9,3.5c7.1,0,12.9-1.6,12.9-3.5C50.2,66.9,46.2,65.5,40.6,65.1z"/>
		</g>
	</g>
</g>
</svg>
