<?xml version="1.0" encoding="utf-8"?>
<!-- Generator: Adobe Illustrator 19.1.1, SVG Export Plug-In . SVG Version: 6.00 Build 0)  -->
<svg version="1.1" xmlns="http://www.w3.org/2000/svg" xmlns:xlink="http://www.w3.org/1999/xlink" x="0px" y="0px"
	 viewBox="-12 -32 135 135" style="enable-background:new -12 -32 135 135;" xml:space="preserve">
<style type="text/css">
	.st0{display:none;}
	.st1{display:inline;}
	.st2{fill:url(#SVGID_1_);}
	.st3{fill:#FFFFFF;}
	.st4{fill:url(#SVGID_2_);}
	.st5{fill:url(#SVGID_3_);}
</style>
<g id="Capa_1" class="st0">
	<g id="Capa_1_2_">
		<g id="Capa_1_1_" class="st1">
			<g>
				
					<linearGradient id="SVGID_1_" gradientUnits="userSpaceOnUse" x1="31.5" y1="155.9134" x2="31.5" y2="21.9134" gradientTransform="matrix(1 0 0 -1 0 74)">
					<stop  offset="0" style="stop-color:#1000A5"/>
					<stop  offset="0.2578" style="stop-color:#22069E"/>
					<stop  offset="0.728" style="stop-color:#3E1092"/>
					<stop  offset="1" style="stop-color:#49148E"/>
				</linearGradient>
				<circle class="st2" cx="31.5" cy="-27.7" r="67"/>
				<path class="st3" d="M59.4-34.2c0-1.2-0.7-2.3-1.6-2.5v-2.7c0-0.8-0.6-1.4-1.4-1.4S55-40.2,55-39.4v4.3h-6.4V-37H39
					c-1.1,0-2.1-0.9-2.1-2.1c0-0.6,0.2-1.1,0.6-1.5c0.4-0.4,0.9-0.6,1.5-0.6h9.7v-2.1H39c-1.1,0-2.1-0.9-2.1-2.1
					c0-0.6,0.2-1.1,0.6-1.5s0.9-0.6,1.5-0.6h9.7v-2.1H39c-1.1,0-2.1-0.9-2.1-2.1c0-0.6,0.2-1.1,0.6-1.5c0.4-0.4,0.9-0.6,1.5-0.6h9.7
					v-0.1c0-7.1-5.8-12.9-12.9-12.9h-8.7c-7.1,0-12.9,5.8-12.9,12.9v0.1h9.7c0.6,0,1.1,0.2,1.5,0.6c0.4,0.4,0.6,0.9,0.6,1.5
					c0,1.1-0.9,2.1-2.1,2.1h-9.7v2.1h9.7c0.6,0,1.1,0.2,1.5,0.6S26-46,26-45.4c0,1.1-0.9,2.1-2.1,2.1h-9.7v2.1h9.7
					c0.6,0,1.1,0.2,1.5,0.6s0.6,0.9,0.6,1.5c0,1.1-0.9,2.1-2.1,2.1h-9.7v1.9H7.8v-4.3c0-0.8-0.6-1.4-1.4-1.4S5-40.2,5-39.4v2.7
					c-0.9,0.3-1.6,1.3-1.6,2.5c0,1.3,0.8,2.4,1.8,2.6c1.4,11.3,10.5,20.2,21.9,21.2v0.9H30V2.8H18.4c-2.3,0-4.2,1.9-4.2,4.2
					s1.9,4.2,4.2,4.2h26.1c2.3,0,4.2-1.9,4.2-4.2s-1.9-4.2-4.2-4.2H32.8V-9.5h2.9v-0.9c11.4-1,20.5-9.9,21.9-21.2
					C58.7-31.8,59.4-32.9,59.4-34.2z M35.8-13.2v-1.6h-8.6v1.6C16.8-14.3,8.5-22.8,7.9-33.3h6.4v-1.6H24c0.6,0,1.1,0.2,1.5,0.6
					c0.1,0.1,0.2,0.2,0.2,0.3c0,0,0,0.1,0.1,0.1c0,0.1,0.1,0.1,0.1,0.2c0,0,0,0.1,0.1,0.1c0,0.1,0.1,0.2,0.1,0.3l0,0l0,0
					c0,0.1,0.1,0.3,0.1,0.5c0,1.1-0.9,2.1-2.1,2.1h-9.7v0.1c0,7.1,5.8,12.9,12.9,12.9H36c7.1,0,12.9-5.8,12.9-12.9v-0.1H39
					c-1.1,0-2.1-0.9-2.1-2.1c0-0.2,0-0.3,0.1-0.5l0,0l0,0c0-0.1,0-0.2,0.1-0.3c0,0,0-0.1,0.1-0.1c0-0.1,0.1-0.1,0.1-0.2
					c0,0,0-0.1,0.1-0.1c0.1-0.1,0.1-0.2,0.2-0.3c0.4-0.4,0.9-0.6,1.5-0.6h9.7v1.6H55C54.4-22.7,46.2-14.2,35.8-13.2z"/>
			</g>
		</g>
		<g id="Capa_2" class="st1">
		</g>
	</g>
	<g id="Capa_2_1_" class="st1">
		
			<linearGradient id="SVGID_2_" gradientUnits="userSpaceOnUse" x1="45" y1="-60.566" x2="45" y2="71.434" gradientTransform="matrix(1 0 0 1 0 2)">
			<stop  offset="0" style="stop-color:#540086"/>
			<stop  offset="0.1493" style="stop-color:#58058C"/>
			<stop  offset="0.3496" style="stop-color:#65149D"/>
			<stop  offset="0.5789" style="stop-color:#792DB9"/>
			<stop  offset="0.8277" style="stop-color:#954FE0"/>
			<stop  offset="1" style="stop-color:#AB6AFF"/>
		</linearGradient>
		<circle class="st4" cx="45" cy="5" r="66"/>
		<g>
			<g>
				<path class="st3" d="M45.7,20.4l6.9-24.7l0,0c4.5-1.1,10.7-3.6,11.5,0c1,4.3,2.2,14.5,3.4,24.4"/>
				<path class="st3" d="M46.2,20.4L39.3-4.2l0,0c-4.5-1.1-10.7-3.6-11.5,0c-1,4.3-2.2,14.5-3.4,24.4"/>
				<path class="st3" d="M27.9-4.5c1.1-3.9,11.4-4.8,14.1-7c1.3,1.1,2.2,1.4,3.7,1.4s2.4-0.3,3.7-1.4c2,1.7,12.7,2.9,14.5,6.9"/>
				<polygon class="st3" points="38.8,-9.7 38.5,-0.9 46.1,20.2 53.1,-0.9 52.6,-9.9 49.5,-11.6 42.1,-11.6 				"/>
				<polygon class="st3" points="39.9,-10.3 45.8,17.8 36.1,2.4 37.4,-0.3 34.6,-2.5 38.4,-9.4 				"/>
				<polygon class="st3" points="39.9,-10.3 45.8,17.8 37.1,1.1 38.5,-0.9 35.7,-3.1 38.4,-9.4 				"/>
				<polygon class="st3" points="51.8,-10.4 45.8,17.8 55.4,2.4 54.2,-0.3 56.9,-2.5 54,-9.3 				"/>
				<path class="st3" d="M45.9-10.2c3.6,0,7-4.2,8.8-9.3c0.1,0.1,0.2,0.2,0.4,0.2c0.7,0.1,1.6-1.2,1.9-3s0-3.4-0.8-3.5
					c-0.1,0-0.1,0-0.2,0C56.4-32.1,53.7-38,45.9-38s-10.4,5.9-10.1,12.2c-0.1,0-0.2,0-0.2,0c-0.7,0.1-1.1,1.7-0.8,3.5
					c0.3,1.8,1.1,3.2,1.9,3c0.2,0,0.3-0.1,0.4-0.3C38.8-14.4,42.2-10.2,45.9-10.2z"/>
				<path class="st3" d="M56-25.9c0.4-6.3-2.3-12.2-10.1-12.2s-10.4,5.9-10.1,12.2c0.6,0.2,1.3,1.3,1.6,2.8c0.5,0.3,0.9,0.1,0.9-1.1
					c0-3.8,0.5-7.1,2.9-7.9c2.4-0.8,2.9,0.9,4.7,0.9s2.4-1.6,4.7-0.9c2.4,0.7,2.9,4.1,2.9,7.9c0,1.2,0.3,1.5,0.8,1.2
					C54.6-24.6,55.3-25.8,56-25.9z"/>
				<path class="st3" d="M52.9-33.9c-1,2-11.2,7.8-14.5,8.1C35-25.6,38.2-39.1,52.9-33.9z"/>
				<path class="st3" d="M48.1-33.9c0.4,2,4.8,7.8,6.3,8.1C55.8-25.6,54.4-39.1,48.1-33.9z"/>
			</g>
			<path class="st3" d="M10.6,21.7c0-6.3-0.4-5.8-1-5.7c-0.6,0-1.1-0.4-1.1,5.8L7.8,5C7.7-3.2,8.3-4.6,9.2-5.7
				c0.9-1.2,2.3-2.2,3.6-2.6l13.1-4.6c0.5-0.2,1.1,0.1,1.3,0.6s-0.1,1.1-0.6,1.3L13.5-6.4c-1,0.3-2,1.1-2.7,2
				c-0.6,0.8-1,1.6-0.9,9.3L10.6,21.7z"/>
			<path class="st3" d="M10.1,24.6c3.8,0,6.9,1.4,6.9-2.4c0-3.8-3.1-6.9-6.9-6.9s-6.9,3.1-6.9,6.9C3.2,26,6.3,24.6,10.1,24.6z"/>
			<polygon class="st3" points="8,38.5 81.8,38.5 91.3,22.6 -1.4,22.6 			"/>
			<path class="st3" d="M20.2-12.1l9.3-3.3c1.3-0.5,2.7,0.2,3.2,1.5l0,0c0.5,1.3-0.2,2.7-1.5,3.2l-9.3,3.3c-1.3,0.5-2.7-0.2-3.2-1.5
				l0,0C18.2-10.2,18.9-11.6,20.2-12.1z"/>
			<path class="st3" d="M24.2,19.6"/>
		</g>
	</g>
</g>
<g id="Capa_2_2_">
	<g>
		<linearGradient id="SVGID_3_" gradientUnits="userSpaceOnUse" x1="55.8458" y1="-28.1617" x2="55.8458" y2="105.8388">
			<stop  offset="0" style="stop-color:#5E23A8"/>
			<stop  offset="0.2021" style="stop-color:#6229AA"/>
			<stop  offset="0.4733" style="stop-color:#6F3AAF"/>
			<stop  offset="0.7822" style="stop-color:#8356B8"/>
			<stop  offset="1" style="stop-color:#956EC0"/>
		</linearGradient>
		<circle class="st5" cx="55.8" cy="36.4" r="67"/>
		<g>
			<g>
				<path class="st3" d="M65.2-2.3l-6.5,6.5l29.9,29.9l6.5-6.5c-2.5-2.5-3-5.7-0.5-8.2l-21-21C71.2,1,67.7,0.2,65.2-2.3z"/>
				<path class="st3" d="M16.5,46.4c2.5,2.5,2.8,6.4,0.7,8.5l21,21c2.1-2.1,5.8-2,8.2,0.5l6.9-6.9L23.4,39.5L16.5,46.4z"/>
			</g>
			<rect x="34.5" y="15" transform="matrix(0.7071 -0.7071 0.7071 0.7071 -9.2781 50.5504)" class="st3" width="43.8" height="43"/>
		</g>
	</g>
</g>
</svg>
