<?xml version="1.0" encoding="utf-8"?>
<!-- Generator: Adobe Illustrator 19.1.1, SVG Export Plug-In . SVG Version: 6.00 Build 0)  -->
<svg version="1.1" xmlns="http://www.w3.org/2000/svg" xmlns:xlink="http://www.w3.org/1999/xlink" x="0px" y="0px"
	 viewBox="0 0 135 135" style="enable-background:new 0 0 135 135;" xml:space="preserve">
<style type="text/css">
	.st0{fill:url(#SVGID_1_);}
	.st1{fill:#FFFFFF;}
</style>
<g id="Capa_1">
	<g>
		<linearGradient id="SVGID_1_" gradientUnits="userSpaceOnUse" x1="67.46" y1="14.0866" x2="67.46" y2="148.0094">
			<stop  offset="0" style="stop-color:#1000A5"/>
			<stop  offset="0.2578" style="stop-color:#22069E"/>
			<stop  offset="0.728" style="stop-color:#3E1092"/>
			<stop  offset="1" style="stop-color:#49148E"/>
		</linearGradient>
		<circle class="st0" cx="67.5" cy="68.3" r="67"/>
		<path class="st1" d="M95.4,61.8c0-1.2-0.7-2.3-1.6-2.5v-2.7c0-0.8-0.6-1.4-1.4-1.4c-0.8,0-1.4,0.6-1.4,1.4v4.3h-6.4V59H75
			c-1.1,0-2.1-0.9-2.1-2.1c0-0.6,0.2-1.1,0.6-1.5c0.4-0.4,0.9-0.6,1.5-0.6h9.7v-2.1H75c-1.1,0-2.1-0.9-2.1-2.1
			c0-0.6,0.2-1.1,0.6-1.5c0.4-0.4,0.9-0.6,1.5-0.6h9.7v-2.1H75c-1.1,0-2.1-0.9-2.1-2.1c0-0.6,0.2-1.1,0.6-1.5
			c0.4-0.4,0.9-0.6,1.5-0.6h9.7v-0.1c0-7.1-5.8-12.9-12.9-12.9h-8.7c-7.1,0-12.9,5.8-12.9,12.9v0.1h9.7c0.6,0,1.1,0.2,1.5,0.6
			c0.4,0.4,0.6,0.9,0.6,1.5c0,1.1-0.9,2.1-2.1,2.1h-9.7v2.1h9.7c0.6,0,1.1,0.2,1.5,0.6c0.4,0.4,0.6,0.9,0.6,1.5
			c0,1.1-0.9,2.1-2.1,2.1h-9.7v2.1h9.7c0.6,0,1.1,0.2,1.5,0.6c0.4,0.4,0.6,0.9,0.6,1.5c0,1.1-0.9,2.1-2.1,2.1h-9.7v1.9h-6.4v-4.3
			c0-0.8-0.6-1.4-1.4-1.4c-0.8,0-1.4,0.6-1.4,1.4v2.7c-0.9,0.3-1.6,1.3-1.6,2.5c0,1.3,0.8,2.4,1.8,2.6c1.4,11.3,10.5,20.2,21.9,21.2
			v0.9h2.9v12.3H54.4c-2.3,0-4.2,1.9-4.2,4.2c0,2.3,1.9,4.2,4.2,4.2h26.1c2.3,0,4.2-1.9,4.2-4.2c0-2.3-1.9-4.2-4.2-4.2H68.8V86.5
			h2.9v-0.9c11.4-1,20.5-9.9,21.9-21.2C94.7,64.2,95.4,63.1,95.4,61.8z M71.8,82.8v-1.6h-8.6v1.6c-10.4-1.1-18.7-9.6-19.3-20.1h6.4
			v-1.6h9.7c0.6,0,1.1,0.2,1.5,0.6c0.1,0.1,0.2,0.2,0.2,0.3c0,0,0,0.1,0.1,0.1c0,0.1,0.1,0.1,0.1,0.2c0,0,0,0.1,0.1,0.1
			c0,0.1,0.1,0.2,0.1,0.3c0,0,0,0,0,0h0c0,0.1,0.1,0.3,0.1,0.5c0,1.1-0.9,2.1-2.1,2.1h-9.7v0.1c0,7.1,5.8,12.9,12.9,12.9h8.7
			c7.1,0,12.9-5.8,12.9-12.9v-0.1H75c-1.1,0-2.1-0.9-2.1-2.1c0-0.2,0-0.3,0.1-0.5h0c0,0,0,0,0,0c0-0.1,0-0.2,0.1-0.3
			c0,0,0-0.1,0.1-0.1c0-0.1,0.1-0.1,0.1-0.2c0,0,0-0.1,0.1-0.1c0.1-0.1,0.1-0.2,0.2-0.3c0.4-0.4,0.9-0.6,1.5-0.6h9.7v1.6H91
			C90.4,73.3,82.2,81.8,71.8,82.8z"/>
	</g>
</g>
<g id="Capa_2">
</g>
</svg>
