<?xml version="1.0" encoding="utf-8"?>
<!-- Generator: Adobe Illustrator 19.1.1, SVG Export Plug-In . SVG Version: 6.00 Build 0)  -->
<svg version="1.1" xmlns="http://www.w3.org/2000/svg" xmlns:xlink="http://www.w3.org/1999/xlink" x="0px" y="0px"
	 viewBox="-12 -32 135 135" style="enable-background:new -12 -32 135 135;" xml:space="preserve">
<style type="text/css">
	.st0{display:none;}
	.st1{display:inline;}
	.st2{fill:url(#SVGID_1_);}
	.st3{fill:#FFFFFF;}
	.st4{fill:url(#SVGID_2_);}
</style>
<g id="Capa_1" class="st0">
	<g id="Capa_1_1_" class="st1">
		<g>
			
				<linearGradient id="SVGID_1_" gradientUnits="userSpaceOnUse" x1="54.5119" y1="88.1439" x2="54.5119" y2="-43.8999" gradientTransform="matrix(1 0 0 -1 0 72)">
				<stop  offset="0" style="stop-color:#1000A5"/>
				<stop  offset="0.2578" style="stop-color:#22069E"/>
				<stop  offset="0.728" style="stop-color:#3E1092"/>
				<stop  offset="1" style="stop-color:#49148E"/>
			</linearGradient>
			<circle class="st2" cx="54.5" cy="37.3" r="66"/>
			<path class="st3" d="M82,30.9c0-1.2-0.7-2.3-1.6-2.5v-2.7c0-0.8-0.6-1.4-1.4-1.4s-1.4,0.6-1.4,1.4V30h-6.3v-1.9h-9.5
				c-1.1,0-2.1-0.9-2.1-2.1c0-0.6,0.2-1.1,0.6-1.5c0.4-0.4,0.9-0.6,1.5-0.6h9.6v-2.1h-9.6c-1.1,0-2.1-0.9-2.1-2.1
				c0-0.6,0.2-1.1,0.6-1.5c0.4-0.4,0.9-0.6,1.5-0.6h9.6v-2.1h-9.6c-1.1,0-2.1-0.9-2.1-2.1c0-0.6,0.2-1.1,0.6-1.5
				c0.4-0.4,0.9-0.6,1.5-0.6h9.6v-0.1c0-7-5.7-12.7-12.7-12.7h-8.6c-7,0-12.7,5.7-12.7,12.7v0.1H47c0.6,0,1.1,0.2,1.5,0.6
				c0.4,0.4,0.6,0.9,0.6,1.5c0,1.1-0.9,2.1-2.1,2.1h-9.6v2.1H47c0.6,0,1.1,0.2,1.5,0.6c0.4,0.4,0.6,0.9,0.6,1.5
				c0,1.1-0.9,2.1-2.1,2.1h-9.6V24H47c0.6,0,1.1,0.2,1.5,0.6c0.4,0.4,0.6,0.9,0.6,1.5c0,1.1-0.9,2.1-2.1,2.1h-9.6V30h-6.3v-4.2
				c0-0.8-0.6-1.4-1.4-1.4c-0.8,0-1.4,0.6-1.4,1.4v2.7c-0.9,0.3-1.6,1.3-1.6,2.5c0,1.3,0.8,2.4,1.8,2.6C30,44.6,38.9,53.3,50.2,54.3
				v0.9H53v12.1H41.6c-2.3,0-4.1,1.9-4.1,4.1s1.9,4.1,4.1,4.1h25.7c2.3,0,4.1-1.9,4.1-4.1c0-2.3-1.9-4.1-4.1-4.1H55.8V55.2h2.9v-0.9
				c11.2-1,20.2-9.8,21.6-20.9C81.3,33.2,82,32.2,82,30.9z M58.7,51.6V50h-8.5v1.6c-10.2-1.1-18.4-9.5-19-19.8h6.3v-1.6h9.6
				c0.6,0,1.1,0.2,1.5,0.6c0.1,0.1,0.2,0.2,0.2,0.3c0,0,0,0.1,0.1,0.1c0,0.1,0.1,0.1,0.1,0.2c0,0,0,0.1,0.1,0.1
				c0,0.1,0.1,0.2,0.1,0.3l0,0l0,0c0,0.1,0.1,0.3,0.1,0.5c0,1.1-0.9,2.1-2.1,2.1h-9.6v0.1c0,7,5.7,12.7,12.7,12.7h8.6
				c7,0,12.7-5.7,12.7-12.7v-0.1h-9.8c-1.1,0-2.1-0.9-2.1-2.1c0-0.2,0-0.3,0.1-0.5l0,0l0,0c0-0.1,0-0.2,0.1-0.3c0,0,0-0.1,0.1-0.1
				c0-0.1,0.1-0.1,0.1-0.2c0,0,0-0.1,0.1-0.1c0.1-0.1,0.1-0.2,0.2-0.3c0.4-0.4,0.9-0.6,1.5-0.6h9.6v1.6h6.1
				C77.1,42.2,69,50.6,58.7,51.6z"/>
		</g>
	</g>
	<g id="Capa_2" class="st1">
	</g>
</g>
<g id="Capa_2_1_">
	<g>
		<linearGradient id="SVGID_2_" gradientUnits="userSpaceOnUse" x1="55.3178" y1="-29.2447" x2="55.3178" y2="105.7558">
			<stop  offset="0" style="stop-color:#B34300"/>
			<stop  offset="0.1551" style="stop-color:#B74900"/>
			<stop  offset="0.3631" style="stop-color:#C25A00"/>
			<stop  offset="0.6012" style="stop-color:#D57600"/>
			<stop  offset="0.8598" style="stop-color:#EF9D00"/>
			<stop  offset="1" style="stop-color:#FFB500"/>
		</linearGradient>
		<circle class="st4" cx="55.3" cy="35.8" r="67.5"/>
		<path id="XMLID_56_" class="st3" d="M48.2,68.9V10.5H21.2v58.4h26.9L48.2,68.9z M31.9,60.4h-7.2v-7h7.2V60.4z M31.9,48.2h-7.2v-7
			h7.2V48.2z M31.9,36.1h-7.2v-7h7.2V36.1z M31.9,24h-7.2v-7h7.2V24z M45.3,60.4h-7.2v-7h7.2V60.4z M45.3,48.2h-7.2v-7h7.2V48.2z
			 M45.3,36.1h-7.2v-7h7.2V36.1z M45.3,24h-7.2v-7h7.2V24z"/>
		<path id="XMLID_45_" class="st3" d="M51.9,68.9h36l0-6.1V-1.4H51.9L51.9,68.9 M74.9,65H65v-8h9.9V65z M84.2,53.2H55v-3.4h29.1
			V53.2z M84.2,47.1H55v-3.4h29.1V47.1z M84.2,41.1H55v-3.4h29.1V41.1z M84.2,35H55v-3.4h29.1V35z M84.2,29H55v-3.4h29.1V29z
			 M84.2,22.9H55v-3.4h29.1V22.9z M84.2,16.8H55v-3.4h29.1V16.8z M84.2,10.8H55V7.4h29.1V10.8z"/>
	</g>
</g>
</svg>
